# xmcd
#
# Track frame offsets:
#   150
#   18043
#   34286
#   52629
#   66172
#   80540
#   96258
#   112576
#   127019
#   140937
#   156955
#   171098
#   186365
#   201033
#   219151
#   233743
#   251260
#   267952
#
# Disc length: 3770 seconds
#
# Revision: 0
# Processed by: cddbd v1.5.2PL0 Copyright (c) Steve Scherf et al.
# Submitted via: GXTranscoder 2.0.1939
#
DISCID=f00eb812
DTITLE=country - Country 3
DYEAR=1900
DGENRE=Country
TTITLE0=Start a band
TTITLE1=God love her
TTITLE2=Brothers
TTITLE3=Down the road
TTITLE4=Low
TTITLE5=What it takes
TTITLE6=It won't be like this for long
TTITLE7=Till it feels like cheating
TTITLE8=Weight of the world
TTITLE9=My roots are showing
TTITLE10=Moose shootin' mama
TTITLE11=Turn it off
TTITLE12=I hate this town
TTITLE13=Already home
TTITLE14=Space
TTITLE15=Sweet music man
TTITLE16=Hey, beautiful
TTITLE17=Everybody loves you
EXTD=
EXTT0=
EXTT1=
EXTT2=
EXTT3=
EXTT4=
EXTT5=
EXTT6=
EXTT7=
EXTT8=
EXTT9=
EXTT10=
EXTT11=
EXTT12=
EXTT13=
EXTT14=
EXTT15=
EXTT16=
EXTT17=
PLAYORDER=
